<svg width="26" height="17" viewBox="0 0 26 17" fill="none" xmlns="http://www.w3.org/2000/svg">
<g id="Emoji">
<path id="Vector" d="M21.78 16.514L14.965 10.522L23.622 5.23099C23.622 5.23099 25 13.555 25 14.755C25.0256 15.3151 24.8282 15.8625 24.4511 16.2774C24.0741 16.6923 23.548 16.941 22.988 16.969C22.5442 16.9647 22.1163 16.8035 21.78 16.514ZM0.999995 14.755C0.999995 13.555 2.37499 5.23099 2.37499 5.23099L11.032 10.521L4.21999 16.514C3.88343 16.8038 3.4551 16.965 3.01099 16.969C2.45111 16.941 1.92512 16.6923 1.5482 16.2774C1.17129 15.8624 0.974164 15.315 0.999995 14.755Z" fill="#31373D"/>
<g id="Group">
<path id="Vector_2" d="M18.366 11.4C17.2386 11.4 16.1366 11.0657 15.1992 10.4394C14.2619 9.81306 13.5313 8.92284 13.0999 7.8813C12.6685 6.83976 12.5556 5.69368 12.7755 4.58799C12.9954 3.4823 13.5383 2.46665 14.3355 1.66949C15.1326 0.872335 16.1483 0.329462 17.254 0.109526C18.3597 -0.110409 19.5057 0.00246972 20.5473 0.433889C21.5888 0.865309 22.479 1.59589 23.1054 2.53325C23.7317 3.47061 24.066 4.57265 24.066 5.7C24.066 7.21174 23.4655 8.66155 22.3965 9.73051C21.3275 10.7995 19.8777 11.4 18.366 11.4Z" fill="#14171A"/>
<path id="Vector_3" d="M7.639 11.4C6.51164 11.4 5.40961 11.0657 4.47225 10.4394C3.53489 9.81306 2.8043 8.92284 2.37288 7.8813C1.94147 6.83976 1.82859 5.69368 2.04852 4.58799C2.26846 3.4823 2.81133 2.46665 3.60849 1.66949C4.40565 0.872335 5.42129 0.329462 6.52698 0.109526C7.63267 -0.110409 8.77875 0.00246972 9.82029 0.433889C10.8618 0.865309 11.7521 1.59589 12.3784 2.53325C13.0047 3.47061 13.339 4.57265 13.339 5.7C13.339 7.21174 12.7385 8.66155 11.6695 9.73051C10.6005 10.7995 9.15073 11.4 7.639 11.4Z" fill="#14171A"/>
<path id="Vector_4" d="M18.364 0V11.309H7.638V0H18.364Z" fill="#14171A"/>
</g>
<path id="Vector_5" d="M9.71501 14.242C9.05171 14.2428 8.40308 14.0468 7.85123 13.6787C7.29939 13.3107 6.86913 12.7873 6.61493 12.1746C6.36073 11.5619 6.29401 10.8876 6.42322 10.237C6.55243 9.58644 6.87176 8.9888 7.34079 8.51977C7.80981 8.05075 8.40745 7.73142 9.05805 7.60221C9.70864 7.473 10.383 7.53972 10.9956 7.79392C11.6083 8.04812 12.1317 8.47837 12.4998 9.03022C12.8678 9.58206 13.0638 10.2307 13.063 10.894C13.0619 11.7816 12.7089 12.6326 12.0812 13.2602C11.4536 13.8879 10.6026 14.2409 9.71501 14.242Z" fill="#14171A"/>
<path id="Vector_6" d="M16.285 14.242C15.6217 14.2428 14.9731 14.0468 14.4212 13.6787C13.8694 13.3107 13.4391 12.7873 13.1849 12.1746C12.9307 11.5619 12.864 10.8876 12.9932 10.237C13.1224 9.58644 13.4417 8.9888 13.9108 8.51977C14.3798 8.05075 14.9774 7.73142 15.628 7.60221C16.2786 7.473 16.9529 7.53972 17.5656 7.79392C18.1782 8.04812 18.7017 8.47837 19.0697 9.03022C19.4378 9.58206 19.6338 10.2307 19.633 10.894C19.6319 11.7816 19.2789 12.6326 18.6512 13.2602C18.0236 13.8879 17.1726 14.2409 16.285 14.242Z" fill="#14171A"/>
<path id="Vector_7" d="M16.284 12.905C15.8862 12.905 15.4974 12.7871 15.1667 12.5661C14.836 12.3451 14.5783 12.031 14.4261 11.6636C14.2739 11.2961 14.234 10.8918 14.3116 10.5017C14.3892 10.1116 14.5807 9.75325 14.862 9.472C15.1432 9.19076 15.5016 8.99923 15.8917 8.92164C16.2817 8.84404 16.6861 8.88387 17.0536 9.03607C17.421 9.18828 17.7351 9.44604 17.9561 9.77674C18.177 10.1075 18.295 10.4963 18.295 10.894C18.295 11.4273 18.0831 11.9389 17.706 12.316C17.3288 12.6931 16.8173 12.905 16.284 12.905Z" fill="#67757F"/>
<path id="Vector_8" d="M9.71498 12.905C9.31724 12.905 8.92844 12.7871 8.59773 12.5661C8.26702 12.3451 8.00927 12.031 7.85706 11.6636C7.70485 11.2961 7.66503 10.8918 7.74262 10.5017C7.82022 10.1116 8.01175 9.75325 8.29299 9.472C8.57423 9.19076 8.93256 8.99923 9.32265 8.92164C9.71275 8.84404 10.1171 8.88387 10.4846 9.03607C10.852 9.18828 11.1661 9.44604 11.3871 9.77674C11.608 10.1075 11.726 10.4963 11.726 10.894C11.726 11.4273 11.5141 11.9389 11.137 12.316C10.7598 12.6931 10.2483 12.905 9.71498 12.905Z" fill="#67757F"/>
<path id="Vector_9" d="M18.202 3.81101C17.9893 3.81121 17.7813 3.7483 17.6044 3.63026C17.4275 3.51221 17.2895 3.34433 17.208 3.14786C17.1265 2.95139 17.1052 2.73516 17.1466 2.52653C17.1881 2.31791 17.2905 2.12627 17.4409 1.97587C17.5913 1.82547 17.7829 1.72307 17.9915 1.68162C18.2002 1.64017 18.4164 1.66154 18.6129 1.74303C18.8093 1.82452 18.9772 1.96246 19.0953 2.1394C19.2133 2.31633 19.2762 2.52431 19.276 2.73701C19.2757 3.02177 19.1625 3.29479 18.9611 3.49615C18.7598 3.69751 18.4868 3.81075 18.202 3.81101Z" fill="#FFCC4D"/>
<path id="Vector_10" d="M18.202 8.15101C17.9893 8.1512 17.7813 8.0883 17.6044 7.97025C17.4275 7.85221 17.2895 7.68433 17.208 7.48785C17.1265 7.29138 17.1052 7.07515 17.1466 6.86653C17.1881 6.65791 17.2905 6.46627 17.4409 6.31587C17.5913 6.16547 17.7829 6.06306 17.9915 6.02161C18.2002 5.98017 18.4164 6.00154 18.6129 6.08303C18.8093 6.16452 18.9772 6.30246 19.0953 6.47939C19.2133 6.65633 19.2762 6.86431 19.276 7.07701C19.2757 7.36177 19.1625 7.63479 18.9611 7.83615C18.7598 8.0375 18.4868 8.15074 18.202 8.15101Z" fill="#77B255"/>
<path id="Vector_11" d="M16.033 5.98099C15.8203 5.98119 15.6123 5.91829 15.4354 5.80024C15.2585 5.68219 15.1205 5.51431 15.039 5.31784C14.9575 5.12137 14.9362 4.90514 14.9776 4.69652C15.0191 4.48789 15.1215 4.29626 15.2719 4.14585C15.4223 3.99545 15.6139 3.89305 15.8225 3.8516C16.0311 3.81015 16.2474 3.83153 16.4438 3.91302C16.6403 3.9945 16.8082 4.13244 16.9262 4.30938C17.0443 4.48632 17.1072 4.69429 17.107 4.90699C17.1067 5.19176 16.9935 5.46478 16.7921 5.66613C16.5908 5.86749 16.3178 5.98073 16.033 5.98099Z" fill="#50A5E6"/>
<path id="Vector_12" d="M20.373 5.98099C20.1603 5.98119 19.9523 5.91829 19.7754 5.80024C19.5984 5.68219 19.4605 5.51431 19.379 5.31784C19.2975 5.12137 19.2762 4.90514 19.3176 4.69652C19.3591 4.48789 19.4615 4.29626 19.6119 4.14585C19.7623 3.99545 19.9539 3.89305 20.1625 3.8516C20.3711 3.81015 20.5874 3.83153 20.7838 3.91302C20.9803 3.9945 21.1482 4.13244 21.2662 4.30938C21.3843 4.48632 21.4472 4.69429 21.447 4.90699C21.4467 5.19176 21.3335 5.46478 21.1321 5.66613C20.9308 5.86749 20.6578 5.98073 20.373 5.98099Z" fill="#DD2E44"/>
<path id="Vector_13" d="M7.04001 7.887C6.95037 7.887 6.86439 7.85139 6.80101 7.788C6.73762 7.72461 6.70201 7.63864 6.70201 7.549V6.096L7.56201 5.235L8.42201 6.096V7.549C8.42201 7.63864 8.3864 7.72461 8.32301 7.788C8.25962 7.85139 8.17365 7.887 8.08401 7.887H7.04001ZM8.77901 5.74L7.91801 4.879L8.77901 4.018H10.233C10.3228 4.01826 10.4089 4.05406 10.4724 4.11758C10.5359 4.1811 10.5717 4.26717 10.572 4.357V5.402C10.5717 5.49173 10.5359 5.5777 10.4724 5.64106C10.4088 5.70442 10.3227 5.74 10.233 5.74H8.77901ZM4.89101 5.74C4.80127 5.73973 4.7153 5.7039 4.65195 5.64035C4.58859 5.57681 4.55301 5.49073 4.55301 5.401V4.356C4.55327 4.26643 4.58897 4.18062 4.6523 4.11729C4.71563 4.05396 4.80145 4.01826 4.89101 4.018H6.34601L7.20601 4.878L6.34501 5.739L4.89101 5.74ZM6.70101 3.663V2.208C6.70114 2.16348 6.71004 2.11942 6.7272 2.07834C6.74435 2.03726 6.76943 1.99997 6.80101 1.96858C6.83258 1.93719 6.87002 1.91233 6.9112 1.89542C6.95238 1.8785 6.99649 1.86987 7.04101 1.87H8.08501C8.17465 1.87 8.26062 1.90561 8.32401 1.96899C8.3874 2.03238 8.42301 2.11835 8.42301 2.208V3.662L7.56301 4.523L6.70101 3.663Z" fill="#8899A6"/>
</g>
</svg>
