<svg width="24" height="24" viewBox="0 0 24 24" fill="none" xmlns="http://www.w3.org/2000/svg">
<g id="Emoji">
<path id="Vector" d="M20.712 22.061C20.4454 22.061 20.1848 21.9819 19.9631 21.8338C19.7414 21.6857 19.5686 21.4752 19.4666 21.2289C19.3646 20.9826 19.3379 20.7115 19.3899 20.45C19.4419 20.1885 19.5703 19.9483 19.7588 19.7598C19.9473 19.5713 20.1875 19.4429 20.449 19.3909C20.7105 19.3389 20.9815 19.3656 21.2279 19.4676C21.4742 19.5696 21.6847 19.7424 21.8328 19.9641C21.9809 20.1858 22.06 20.4464 22.06 20.713C22.0583 20.9469 21.9952 21.1762 21.877 21.378L23.998 23.499L23.408 18.69L17.341 13.971L13.97 17.342L18.689 23.41L23.499 24.001L21.377 21.879C21.1751 21.9969 20.9458 22.0596 20.712 22.061Z" fill="#99AAB5"/>
<path id="Vector_2" d="M9.01 6.19999L6.2 9.01099C5.82741 9.38331 5.32223 9.59245 4.7955 9.59245C4.26877 9.59245 3.76359 9.38331 3.391 9.01099L0.581 6.19999C0.208684 5.8274 -0.000457764 5.32222 -0.000457764 4.79549C-0.000457764 4.26876 0.208684 3.76359 0.581 3.39099L3.391 0.581994C3.57542 0.397521 3.79438 0.251186 4.03537 0.151348C4.27636 0.0515089 4.53465 0.00012207 4.7955 0.00012207C5.05635 0.00012207 5.31464 0.0515089 5.55563 0.151348C5.79662 0.251186 6.01558 0.397521 6.2 0.581994L9.01 3.39099C9.19447 3.57542 9.34081 3.79438 9.44065 4.03536C9.54049 4.27635 9.59187 4.53464 9.59187 4.79549C9.59187 5.05634 9.54049 5.31464 9.44065 5.55562C9.34081 5.79661 9.19447 6.01557 9.01 6.19999Z" fill="#66757F"/>
<path id="Vector_3" d="M6.17601 0.557983L0.558014 6.17698L12.158 17.777C12.5308 18.1494 13.0361 18.3585 13.563 18.3585C14.0899 18.3585 14.5953 18.1494 14.968 17.777L17.777 14.967C18.1493 14.5946 18.3584 14.0896 18.3584 13.563C18.3584 13.0364 18.1493 12.5314 17.777 12.159L6.17601 0.557983Z" fill="#31373D"/>
<path id="Vector_4" d="M10.976 5.358L12.408 6.791L6.78999 12.409L5.35699 10.977L10.976 5.358Z" fill="#66757F"/>
</g>
</svg>
