<svg width="24" height="21" viewBox="0 0 24 21" fill="none" xmlns="http://www.w3.org/2000/svg">
<g id="Emoji">
<path id="Vector" d="M5.04 18.654C4.74826 18.4023 4.55196 18.0579 4.48404 17.6787C4.41613 17.2994 4.48073 16.9083 4.667 16.571C6 13.905 9.818 9.328 6 11.238C2.251 13.113 1.431 14.4 0.245002 12.36C0.0817244 11.6804 -0.000514781 10.9839 2.42435e-06 10.285C2.42435e-06 4.605 5.373 0 12 0C18.627 0 24 4.605 24 10.285C24 15.965 18.627 20.571 12 20.571C9.54779 20.5847 7.13937 19.9214 5.04 18.654Z" fill="#D99E82"/>
<path id="Vector_2" d="M6.66699 7.23801C6.27143 7.23801 5.88475 7.12071 5.55585 6.90095C5.22695 6.68118 4.97061 6.36883 4.81923 6.00337C4.66786 5.63792 4.62825 5.23579 4.70542 4.84783C4.78259 4.45986 4.97307 4.1035 5.25278 3.82379C5.53248 3.54409 5.88885 3.35361 6.27681 3.27644C6.66477 3.19927 7.06691 3.23887 7.43236 3.39025C7.79781 3.54162 8.11017 3.79797 8.32993 4.12687C8.5497 4.45577 8.66699 4.84244 8.66699 5.23801C8.66699 5.76844 8.45628 6.27715 8.08121 6.65222C7.70613 7.02729 7.19743 7.23801 6.66699 7.23801Z" fill="#5C913B"/>
<path id="Vector_3" d="M13.333 5.905C12.9374 5.905 12.5508 5.7877 12.2219 5.56794C11.893 5.34818 11.6366 5.03582 11.4852 4.67037C11.3339 4.30491 11.2943 3.90278 11.3714 3.51482C11.4486 3.12686 11.6391 2.77049 11.9188 2.49079C12.1985 2.21108 12.5549 2.0206 12.9428 1.94343C13.3308 1.86626 13.7329 1.90587 14.0984 2.05724C14.4638 2.20862 14.7762 2.46496 14.9959 2.79386C15.2157 3.12276 15.333 3.50944 15.333 3.905C15.333 4.43543 15.1223 4.94414 14.7472 5.31921C14.3721 5.69429 13.8634 5.905 13.333 5.905Z" fill="#226699"/>
<path id="Vector_4" d="M19.333 9.905C18.9374 9.905 18.5508 9.7877 18.2219 9.56794C17.893 9.34818 17.6366 9.03582 17.4852 8.67037C17.3339 8.30491 17.2943 7.90278 17.3714 7.51482C17.4486 7.12686 17.6391 6.77049 17.9188 6.49079C18.1985 6.21108 18.5549 6.0206 18.9428 5.94343C19.3308 5.86626 19.7329 5.90587 20.0984 6.05724C20.4638 6.20862 20.7762 6.46496 20.9959 6.79386C21.2157 7.12276 21.333 7.50944 21.333 7.905C21.333 8.43543 21.1223 8.94414 20.7472 9.31921C20.3721 9.69429 19.8634 9.905 19.333 9.905Z" fill="#DD2E44"/>
<path id="Vector_5" d="M18.667 15.905C18.2714 15.905 17.8848 15.7877 17.5559 15.5679C17.227 15.3482 16.9706 15.0358 16.8192 14.6704C16.6679 14.3049 16.6283 13.9028 16.7054 13.5148C16.7826 13.1269 16.9731 12.7705 17.2528 12.4908C17.5325 12.2111 17.8889 12.0206 18.2768 11.9434C18.6648 11.8663 19.0669 11.9059 19.4324 12.0572C19.7978 12.2086 20.1102 12.465 20.3299 12.7939C20.5497 13.1228 20.667 13.5094 20.667 13.905C20.667 14.4354 20.4563 14.9441 20.0812 15.3192C19.7061 15.6943 19.1974 15.905 18.667 15.905Z" fill="#FFCC4D"/>
</g>
</svg>
