<svg width="24" height="25" viewBox="0 0 24 25" fill="none" xmlns="http://www.w3.org/2000/svg">
<g id="Emoji">
<path id="Vector" d="M12 25C9.62663 25 7.30655 24.2962 5.33316 22.9776C3.35977 21.659 1.8217 19.7849 0.913451 17.5922C0.00519943 15.3995 -0.232441 12.9867 0.230582 10.6589C0.693605 8.33112 1.83649 6.19292 3.51472 4.51469C5.19295 2.83646 7.33115 1.69357 9.65892 1.23055C11.9867 0.767529 14.3995 1.00517 16.5922 1.91342C18.7849 2.82167 20.6591 4.35974 21.9776 6.33313C23.2962 8.30652 24 10.6266 24 13C24 16.1826 22.7357 19.2348 20.4853 21.4853C18.2348 23.7357 15.1826 25 12 25Z" fill="#F5F8FA"/>
<path id="Vector_2" d="M8.66702 23.667C8.49012 23.667 8.32047 23.5967 8.19538 23.4716C8.07029 23.3465 8.00002 23.1769 8.00002 23C8.00002 22.8231 8.07029 22.6534 8.19538 22.5283C8.32047 22.4032 8.49012 22.333 8.66702 22.333H14.667C14.8439 22.333 15.0136 22.4032 15.1387 22.5283C15.2637 22.6534 15.334 22.8231 15.334 23C15.334 23.1769 15.2637 23.3465 15.1387 23.4716C15.0136 23.5967 14.8439 23.667 14.667 23.667H8.66702ZM17.493 20.843L13.853 15.954C13.7469 15.8121 13.7016 15.6339 13.7269 15.4585C13.7522 15.2832 13.8461 15.1251 13.988 15.019C14.1299 14.9129 14.3081 14.8675 14.4835 14.8928C14.6588 14.9181 14.8169 15.0121 14.923 15.154L18.562 20.042C18.6681 20.1837 18.7135 20.3618 18.6883 20.5371C18.6631 20.7123 18.5693 20.8704 18.4275 20.9765C18.2858 21.0826 18.1077 21.128 17.9324 21.1028C17.7572 21.0775 17.5991 20.9837 17.493 20.842V20.843ZM5.45302 20.933C5.38104 20.8831 5.31962 20.8195 5.27226 20.7458C5.2249 20.6721 5.19254 20.5898 5.17702 20.5036C5.16151 20.4174 5.16315 20.329 5.18186 20.2434C5.20056 20.1579 5.23596 20.0768 5.28602 20.005L8.70802 15.092C8.8088 14.9469 8.96309 14.8478 9.13693 14.8165C9.31078 14.7852 9.48994 14.8242 9.63502 14.925C9.78009 15.0258 9.87919 15.18 9.91051 15.3539C9.94182 15.5277 9.9028 15.7069 9.80202 15.852L6.38102 20.769C6.3312 20.8411 6.26763 20.9026 6.19396 20.95C6.12029 20.9975 6.03797 21.0299 5.95173 21.0454C5.8655 21.0609 5.77704 21.0592 5.69146 21.0404C5.60587 21.0217 5.52484 20.9862 5.45302 20.936V20.933ZM21.253 19.061C21.168 19.04 21.088 19.0025 21.0175 18.9506C20.947 18.8987 20.8874 18.8334 20.8422 18.7584C20.797 18.6835 20.767 18.6004 20.7539 18.5138C20.7408 18.4272 20.7449 18.3389 20.766 18.254L22.183 12.504C22.2012 12.416 22.2368 12.3327 22.288 12.2589C22.3391 12.185 22.4046 12.1223 22.4806 12.0744C22.5565 12.0266 22.6413 11.9945 22.73 11.9802C22.8186 11.9659 22.9092 11.9696 22.9964 11.9912C23.0836 12.0127 23.1655 12.0517 23.2372 12.1056C23.309 12.1596 23.3691 12.2275 23.414 12.3053C23.4589 12.383 23.4876 12.4691 23.4984 12.5582C23.5092 12.6473 23.502 12.7377 23.477 12.824L22.06 18.574C22.0241 18.7185 21.941 18.8469 21.8237 18.9388C21.7065 19.0306 21.5619 19.0807 21.413 19.081C21.3605 19.0811 21.3082 19.0754 21.257 19.064L21.253 19.061ZM1.69002 18.55L0.231019 13.175C0.184738 13.0042 0.208203 12.822 0.296252 12.6685C0.3843 12.515 0.529719 12.4028 0.700519 12.3565C0.871318 12.3102 1.05351 12.3337 1.20701 12.4217C1.3605 12.5098 1.47274 12.6552 1.51902 12.826L2.97702 18.201C3.00002 18.2854 3.00613 18.3736 2.995 18.4604C2.98386 18.5472 2.9557 18.6309 2.91213 18.7068C2.86856 18.7827 2.81043 18.8493 2.74109 18.9027C2.67174 18.9561 2.59254 18.9953 2.50802 19.018C2.45108 19.0339 2.39215 19.0417 2.33302 19.041C2.18689 19.0407 2.04487 18.9926 1.92873 18.9039C1.81259 18.8152 1.72874 18.6909 1.69002 18.55ZM7.40802 11.302L2.04902 9.60697C1.96556 9.58071 1.8881 9.53827 1.82105 9.48206C1.754 9.42586 1.69867 9.357 1.65823 9.27942C1.57656 9.12273 1.56048 8.94002 1.61352 8.77147C1.66656 8.60293 1.78439 8.46236 1.94107 8.38069C2.09776 8.29901 2.28047 8.28293 2.44902 8.33597L7.81302 10.033C7.9626 10.0826 8.08979 10.1836 8.17202 10.318C8.25425 10.4525 8.28622 10.6117 8.26225 10.7675C8.23829 10.9232 8.15994 11.0655 8.0411 11.169C7.92226 11.2725 7.7706 11.3306 7.61302 11.333C7.54348 11.3335 7.47428 11.3231 7.40802 11.302ZM16.053 10.658C16.0287 10.5739 16.0212 10.4859 16.0309 10.399C16.0406 10.312 16.0673 10.2278 16.1096 10.1512C16.1518 10.0746 16.2088 10.007 16.2771 9.95245C16.3455 9.89784 16.424 9.85725 16.508 9.83297L21.008 8.52697C21.1764 8.4824 21.3556 8.50549 21.5072 8.59131C21.6589 8.67713 21.7709 8.81887 21.8194 8.98622C21.8678 9.15357 21.8489 9.33324 21.7666 9.4868C21.6843 9.64037 21.5452 9.75565 21.379 9.80797L16.879 11.114C16.8189 11.1314 16.7566 11.1401 16.694 11.14C16.5497 11.1396 16.4094 11.0924 16.2942 11.0055C16.179 10.9186 16.095 10.7966 16.055 10.658H16.053ZM11.334 7.66697V2.99997C11.334 2.82321 11.4042 2.65368 11.5292 2.52869C11.6542 2.40369 11.8238 2.33347 12.0005 2.33347C12.1773 2.33347 12.3468 2.40369 12.4718 2.52869C12.5968 2.65368 12.667 2.82321 12.667 2.99997V7.66697C12.667 7.84374 12.5968 8.01327 12.4718 8.13826C12.3468 8.26325 12.1773 8.33347 12.0005 8.33347C11.8238 8.33347 11.6542 8.26325 11.5292 8.13826C11.4042 8.01327 11.334 7.84374 11.334 7.66697ZM19.875 6.03297L14.834 3.11897C14.6809 3.03039 14.5692 2.88459 14.5235 2.71365C14.4778 2.54272 14.5019 2.36064 14.5905 2.20747C14.6791 2.05431 14.8249 1.94261 14.9958 1.89695C15.1668 1.85128 15.3489 1.87539 15.502 1.96397L20.543 4.88097C20.6848 4.97484 20.7854 5.11933 20.8243 5.28491C20.8631 5.45049 20.8372 5.62464 20.7519 5.77177C20.6666 5.91889 20.5283 6.02787 20.3653 6.07642C20.2023 6.12497 20.0269 6.10943 19.875 6.03297ZM3.12602 5.84697C3.07486 5.77587 3.03822 5.69538 3.01817 5.6101C2.99813 5.52483 2.99507 5.43644 3.00919 5.34999C3.0233 5.26354 3.05431 5.18071 3.10044 5.10624C3.14656 5.03178 3.2069 4.96712 3.27802 4.91597L7.40802 1.95797C7.55177 1.85481 7.73061 1.81296 7.90521 1.84166C8.0798 1.87035 8.23585 1.96723 8.33902 2.11097C8.44219 2.25472 8.48403 2.43357 8.45533 2.60816C8.42664 2.78276 8.32977 2.93881 8.18602 3.04197L4.05602 5.99997C3.98493 6.05105 3.90447 6.08761 3.81924 6.10757C3.734 6.12752 3.64568 6.13048 3.5593 6.11627C3.47293 6.10206 3.3902 6.07096 3.31585 6.02475C3.24151 5.97854 3.177 5.91813 3.12602 5.84697Z" fill="#CCD6DD"/>
<path id="Vector_3" d="M14.183 23.554C14.1318 23.5121 14.0894 23.4605 14.0583 23.4021C14.0271 23.3438 14.0079 23.2798 14.0017 23.214C13.9954 23.1481 14.0023 23.0817 14.022 23.0185C14.0416 22.9553 14.0736 22.8967 14.116 22.846L16.949 19.457C16.9986 19.3978 17.0612 19.3509 17.132 19.32L21.187 17.542C21.2491 17.5148 21.3161 17.5005 21.3839 17.5001C21.4516 17.4996 21.5188 17.5129 21.5813 17.5392C21.6438 17.5655 21.7002 17.6042 21.7473 17.653C21.7944 17.7017 21.831 17.7596 21.855 17.823L22.33 19.083C20.7809 21.7129 18.2888 23.6547 15.36 24.514C15.024 24.241 14.639 23.927 14.183 23.554ZM1.431 18.682C1.758 17.376 1.863 17.333 2.22 17.333C2.27499 17.3336 2.32959 17.3423 2.382 17.359C2.43 17.376 2.503 17.4 6.426 19.446C6.4789 19.4731 6.52636 19.5097 6.566 19.554L9.566 22.888C9.61004 22.937 9.64395 22.9943 9.66578 23.0564C9.68762 23.1186 9.69694 23.1845 9.69323 23.2503C9.68951 23.3161 9.67282 23.3805 9.64412 23.4398C9.61542 23.4992 9.57528 23.5522 9.526 23.596L8.526 24.484C5.48775 23.5625 2.93725 21.4768 1.431 18.682ZM8.695 17C8.5506 17 8.41009 16.9531 8.29466 16.8664C8.17922 16.7796 8.09511 16.6577 8.055 16.519L6.388 10.8C6.34927 10.6678 6.35252 10.5269 6.3973 10.3967C6.44208 10.2665 6.52619 10.1534 6.638 10.073L11.415 6.62797C11.528 6.54762 11.6633 6.50445 11.802 6.50445C11.9407 6.50445 12.076 6.54762 12.189 6.62797L17 10.011C17.1174 10.0936 17.205 10.2119 17.2497 10.3483C17.2943 10.4847 17.2938 10.6319 17.248 10.768L15.3 16.546C15.2554 16.6785 15.1703 16.7938 15.0568 16.8754C14.9432 16.957 14.8069 17.0009 14.667 17.001L8.695 17ZM0.428001 13.868L0.028001 13.525C0.019001 13.35 9.86885e-07 13.177 9.86885e-07 13C-0.000657522 11.3792 0.328238 9.77517 0.966702 8.28542C1.60517 6.79567 2.53987 5.45129 3.714 4.33397H4C4.09888 4.33388 4.19654 4.35581 4.28589 4.39816C4.37524 4.44052 4.45404 4.50223 4.51656 4.57884C4.57909 4.65544 4.62377 4.745 4.64737 4.84102C4.67097 4.93704 4.6729 5.03712 4.653 5.13397L3.765 9.49397C3.75121 9.56198 3.72692 9.62743 3.693 9.68797L1.443 13.688C1.39453 13.7735 1.32784 13.8473 1.24765 13.9042C1.16746 13.961 1.07574 13.9995 0.979001 14.017C0.940418 14.0242 0.901255 14.0279 0.862001 14.028C0.702849 14.0283 0.548861 13.9715 0.428001 13.868ZM22.401 13.568C22.366 13.52 22.341 13.523 22.325 13.468C22.173 13.148 21.066 11.283 20.071 9.61297C20.0409 9.56779 20.0198 9.51719 20.009 9.46397L19.23 5.33497C19.2165 5.26068 19.22 5.18429 19.2403 5.11155C19.2606 5.03881 19.2971 4.9716 19.347 4.91497C19.3976 4.85827 19.4605 4.81384 19.5308 4.78508C19.6012 4.75631 19.6772 4.74397 19.753 4.74897L20.753 4.81197C22.839 7.02797 24.0003 9.95665 24 13C24 13.056 23.993 13.11 23.992 13.165C23.028 13.73 22.945 13.665 22.813 13.665C22.757 13.665 22.701 13.665 22.649 13.665C22.603 13.6725 22.5558 13.6678 22.5122 13.6515C22.4685 13.6352 22.4298 13.6078 22.4 13.572L22.401 13.568ZM11.7 3.96597L7.45 3.27097C7.37112 3.25798 7.2965 3.22626 7.2324 3.17847C7.16831 3.13068 7.11661 3.06821 7.08164 2.99632C7.04667 2.92442 7.02946 2.84519 7.03143 2.76526C7.03341 2.68534 7.05452 2.60705 7.093 2.53697L7.437 1.89997C10.211 0.753658 13.3157 0.697936 16.129 1.74397L16.323 2.70597C16.3364 2.77188 16.3364 2.83981 16.3229 2.90571C16.3094 2.9716 16.2828 3.0341 16.2446 3.08946C16.2064 3.14482 16.1575 3.19191 16.1007 3.22791C16.0439 3.26391 15.9804 3.28808 15.914 3.29897L11.858 3.96597C11.8312 3.97021 11.8041 3.97222 11.777 3.97197C11.7512 3.97159 11.7255 3.96959 11.7 3.96597Z" fill="#31373D"/>
</g>
</svg>
