<svg width="24" height="24" viewBox="0 0 24 24" fill="none" xmlns="http://www.w3.org/2000/svg">
<g id="Emoji">
<path id="Vector" d="M21.333 17.333H2.667C1.95984 17.333 1.28163 17.0522 0.7815 16.5522C0.281369 16.0523 0.000265152 15.3742 0 14.667L0 2.667C0 1.95967 0.280987 1.28131 0.781146 0.781146C1.28131 0.280987 1.95967 0 2.667 0L21.333 0C21.6832 0 22.03 0.068984 22.3536 0.203013C22.6772 0.337043 22.9712 0.533492 23.2189 0.781146C23.4665 1.0288 23.663 1.32281 23.797 1.64638C23.931 1.96996 24 2.31676 24 2.667V14.667C23.9997 15.3742 23.7186 16.0523 23.2185 16.5522C22.7184 17.0522 22.0402 17.333 21.333 17.333Z" fill="#CCD6DD"/>
<path id="Vector_2" d="M21.334 2.66699V14.667H2.66701V2.66699H21.334Z" fill="#5DADEC"/>
<path id="Vector_3" d="M15.334 17.333V21.333H8.66699V17.333H15.334Z" fill="#CCD6DD"/>
<path id="Vector_4" d="M15.334 17.333V18.666H8.66699V17.333H15.334Z" fill="#9AAAB4"/>
<path id="Vector_5" d="M22 20H2C1.46957 20 0.960859 20.2107 0.585786 20.5858C0.210714 20.9609 0 21.4696 0 22C0 22.5304 0.210714 23.0391 0.585786 23.4142C0.960859 23.7893 1.46957 24 2 24H22C22.5304 24 23.0391 23.7893 23.4142 23.4142C23.7893 23.0391 24 22.5304 24 22C24 21.4696 23.7893 20.9609 23.4142 20.5858C23.0391 20.2107 22.5304 20 22 20V20Z" fill="#E1E8ED"/>
<path id="Vector_6" d="M20.667 22.666V21.333H22V22.666H20.667ZM18 22.666V21.333H19.333V22.666H18ZM15.333 22.666V21.333H16.666V22.666H15.333ZM12.666 22.666V21.333H14V22.666H12.666ZM10 22.666V21.333H11.333V22.666H10ZM7.333 22.666V21.333H8.666V22.666H7.333ZM4.666 22.666V21.333H6V22.666H4.666ZM2 22.666V21.333H3.333V22.666H2Z" fill="#F5F8FA"/>
</g>
</svg>
