<svg width="24" height="24" viewBox="0 0 24 24" fill="none" xmlns="http://www.w3.org/2000/svg">
<g id="Emoji">
<path id="Vector" d="M0 12H22.667C22.667 13.333 21.362 24 11.334 24C1.361 24 0 14.667 0 12Z" fill="#CCD6DD"/>
<path id="Vector_2" d="M11.333 17.666C5.074 17.666 0 14.847 0 11.37C0 7.89298 5.074 5.74098 11.333 5.74098C17.592 5.74098 22.667 7.89298 22.667 11.37C22.667 14.847 17.593 17.666 11.333 17.666Z" fill="#99AAB5"/>
<path id="Vector_3" d="M10.666 22C10.6223 22 10.579 21.9914 10.5386 21.9746C10.4982 21.9579 10.4615 21.9334 10.4305 21.9025C10.3996 21.8715 10.3751 21.8348 10.3584 21.7944C10.3416 21.754 10.333 21.7107 10.333 21.667C10.333 21.6233 10.3416 21.58 10.3584 21.5396C10.3751 21.4992 10.3996 21.4624 10.4305 21.4315C10.4615 21.4006 10.4982 21.3761 10.5386 21.3593C10.579 21.3426 10.6223 21.334 10.666 21.334H12V19.334H9.33301V20.001H11.333C11.4215 20.001 11.5063 20.0361 11.5688 20.0987C11.6314 20.1612 11.6665 20.246 11.6665 20.3345C11.6665 20.4229 11.6314 20.5078 11.5688 20.5703C11.5063 20.6329 11.4215 20.668 11.333 20.668H9.00001C8.91143 20.668 8.82647 20.6328 8.76384 20.5702C8.7012 20.5075 8.66601 20.4226 8.66601 20.334V19.001C8.66627 18.9126 8.70158 18.8279 8.76419 18.7655C8.8268 18.703 8.9116 18.668 9.00001 18.668H12.333C12.4214 18.668 12.5062 18.703 12.5688 18.7655C12.6314 18.8279 12.6667 18.9126 12.667 19.001V21.667C12.6667 21.7554 12.6314 21.8401 12.5688 21.9025C12.5062 21.9649 12.4214 22 12.333 22H10.666ZM7.14801 21.506L5.00201 20.818C4.92002 20.7897 4.85231 20.7305 4.81329 20.653C4.77426 20.5756 4.76701 20.4859 4.79307 20.4032C4.81913 20.3204 4.87644 20.2511 4.95281 20.21C5.02919 20.1689 5.11859 20.1592 5.20201 20.183L6.93301 20.735L6.97201 19.164L5.07201 18.607L5.05401 19.097L6.11101 19.455C6.19482 19.4832 6.26397 19.5436 6.30326 19.6229C6.34255 19.7021 6.34876 19.7937 6.32051 19.8775C6.29226 19.9613 6.23188 20.0305 6.15265 20.0697C6.07341 20.109 5.98182 20.1152 5.89801 20.087L4.60101 19.649C4.53311 19.6258 4.47447 19.5814 4.43376 19.5224C4.39306 19.4633 4.37246 19.3927 4.37501 19.321L4.41601 18.155C4.41799 18.1042 4.43144 18.0545 4.45534 18.0097C4.47923 17.9648 4.51297 17.926 4.55401 17.896C4.5949 17.8656 4.64227 17.8451 4.69241 17.8361C4.74255 17.8271 4.79409 17.8298 4.84301 17.844L7.40501 18.594C7.47568 18.6146 7.53751 18.6581 7.58077 18.7176C7.62404 18.7772 7.64628 18.8494 7.64401 18.923L7.58301 21.197C7.58143 21.2489 7.56788 21.2997 7.54343 21.3455C7.51897 21.3913 7.48426 21.4308 7.44201 21.461C7.38606 21.5011 7.31884 21.5224 7.25001 21.522C7.21542 21.5216 7.18107 21.5162 7.14801 21.506ZM15.691 21.124C15.6745 21.0835 15.6662 21.0401 15.6665 20.9964C15.6669 20.9527 15.6759 20.9095 15.6932 20.8693C15.7104 20.8291 15.7354 20.7927 15.7668 20.7623C15.7982 20.7319 15.8353 20.708 15.876 20.692L17.326 20.111L17.283 18.611L14.667 19.262V19.894C15.157 19.756 15.972 19.525 16.572 19.348C16.6567 19.3231 16.7479 19.3328 16.8255 19.3751C16.903 19.4174 16.9606 19.4888 16.9855 19.5735C17.0104 19.6582 17.0007 19.7494 16.9584 19.8269C16.9161 19.9045 16.8447 19.9621 16.76 19.987C15.842 20.259 14.423 20.656 14.423 20.656C14.3734 20.6701 14.3211 20.6725 14.2704 20.663C14.2197 20.6534 14.172 20.6321 14.1309 20.6009C14.0898 20.5696 14.0566 20.5292 14.0339 20.4829C14.0112 20.4366 13.9996 20.3856 14 20.334V19.001C13.9999 18.9265 14.025 18.8541 14.071 18.7955C14.1171 18.7369 14.1816 18.6955 14.254 18.678L17.525 17.865C17.5733 17.853 17.6237 17.852 17.6724 17.8621C17.7212 17.8721 17.7671 17.893 17.8067 17.9231C17.8463 17.9532 17.8787 17.9919 17.9014 18.0361C17.9241 18.0804 17.9366 18.1292 17.938 18.179L18.001 20.324C18.0027 20.3924 17.9834 20.4596 17.9457 20.5167C17.908 20.5737 17.8536 20.6178 17.79 20.643L16.123 21.31C16.0839 21.3258 16.0422 21.334 16 21.334C15.9334 21.3339 15.8684 21.3138 15.8133 21.2764C15.7582 21.239 15.7156 21.1859 15.691 21.124ZM3.05501 19.618L2.13301 19.055C2.09571 19.0321 2.06328 19.0022 2.03757 18.9668C2.01186 18.9314 1.99337 18.8913 1.98316 18.8488C1.97294 18.8062 1.9712 18.7621 1.97804 18.7189C1.98488 18.6757 2.00016 18.6343 2.02301 18.597C2.04586 18.5597 2.07583 18.5273 2.11121 18.5016C2.1466 18.4758 2.1867 18.4573 2.22923 18.4471C2.27176 18.4369 2.31588 18.4352 2.35908 18.442C2.40228 18.4489 2.44371 18.4641 2.48101 18.487L2.88701 18.735L2.88601 17.654L1.99901 17.154V17.437L2.49901 17.737C2.5365 17.7596 2.56917 17.7895 2.59514 17.8247C2.6211 17.86 2.63987 17.9001 2.65036 17.9426C2.66086 17.9851 2.66287 18.0293 2.65629 18.0726C2.64971 18.1159 2.63466 18.1575 2.61201 18.195C2.58936 18.2325 2.55954 18.2651 2.52426 18.2911C2.48899 18.3171 2.44894 18.3359 2.40641 18.3463C2.36388 18.3568 2.3197 18.3589 2.2764 18.3523C2.23309 18.3457 2.1915 18.3306 2.15401 18.308L1.49801 17.908C1.44866 17.8791 1.40757 17.8379 1.37867 17.7885C1.34978 17.7392 1.33406 17.6832 1.33301 17.626V16.585C1.3328 16.5264 1.34804 16.4687 1.37717 16.4178C1.40631 16.3669 1.44833 16.3246 1.499 16.2951C1.54968 16.2657 1.60722 16.25 1.66585 16.2498C1.72448 16.2496 1.78213 16.2648 1.83301 16.294L3.38501 17.168C3.43612 17.197 3.47866 17.239 3.50833 17.2898C3.53801 17.3405 3.55376 17.3982 3.55401 17.457L3.56501 19.332C3.56541 19.376 3.55709 19.4196 3.54053 19.4603C3.52397 19.5011 3.49951 19.5382 3.46854 19.5694C3.43758 19.6006 3.40074 19.6254 3.36014 19.6424C3.31954 19.6593 3.27599 19.668 3.23201 19.668C3.16946 19.6685 3.10806 19.6511 3.05501 19.618ZM18.855 19.474C18.7995 19.4384 18.7533 19.3901 18.7203 19.333C18.6872 19.276 18.6683 19.2118 18.665 19.146V17.438C18.6653 17.3775 18.6819 17.3181 18.7133 17.2663C18.7446 17.2146 18.7895 17.1723 18.843 17.144C19.236 16.935 19.696 16.66 20.069 16.437C20.329 16.281 20.548 16.15 20.677 16.082C20.7258 16.056 20.7802 16.0424 20.8355 16.0424C20.8908 16.0424 20.9452 16.056 20.994 16.082C21.0427 16.1083 21.084 16.1465 21.114 16.193C21.1441 16.2395 21.162 16.2928 21.166 16.348C21.1603 16.7415 21.1269 17.1342 21.066 17.523C21.0591 17.5736 21.0406 17.6219 21.012 17.6642C20.9833 17.7065 20.9454 17.7417 20.901 17.767L20.101 18.226C20.0241 18.27 19.9328 18.2817 19.8473 18.2584C19.7618 18.2352 19.689 18.1789 19.645 18.102C19.601 18.0251 19.5893 17.9338 19.6126 17.8483C19.6358 17.7628 19.6921 17.69 19.769 17.646L20.428 17.27C20.44 17.177 20.45 17.07 20.462 16.97L20.409 17.001C20.082 17.201 19.69 17.432 19.331 17.629V18.722C19.446 18.659 19.602 18.569 19.813 18.437L20.039 18.69L20.166 19.004C19.8379 19.2622 19.4546 19.4412 19.046 19.527C18.9792 19.5259 18.9137 19.5077 18.856 19.474H18.855Z" fill="#EA596E"/>
<path id="Vector_4" d="M11.333 16.666C5.81001 16.666 1.33301 14.577 1.33301 11.999C1.33301 9.42099 5.81001 7.33299 11.333 7.33299C16.856 7.33299 21.333 9.42199 21.333 12C21.333 14.578 16.856 16.666 11.333 16.666Z" fill="#6D22E4"/>
<path id="Vector_5" d="M12.133 15.61C11.8948 15.4879 11.694 15.3037 11.5521 15.0767C11.4102 14.8498 11.3324 14.5886 11.327 14.321C11.329 13.085 12.888 12 14.667 12C14.8439 12 15.0135 12.0703 15.1386 12.1953C15.2637 12.3204 15.334 12.4901 15.334 12.667C15.334 12.8439 15.2637 13.0135 15.1386 13.1386C15.0135 13.2637 14.8439 13.334 14.667 13.334C13.42 13.334 12.662 14.021 12.662 14.322C12.662 14.373 12.762 14.435 12.795 14.453C13.1729 14.6235 13.5875 14.6967 14.001 14.666C15.601 14.666 17.334 13.647 17.334 11.999C17.334 11.518 16.708 11.211 16.434 11.099C15.6664 10.8006 14.8333 10.7115 14.0199 10.8408C13.2066 10.9701 12.4422 11.3132 11.805 11.835C11.2445 12.3349 10.5621 12.6781 9.82664 12.83C9.09115 12.9819 8.32861 12.937 7.61599 12.7C6.58999 12.433 5.40299 11.808 5.14599 10.86C5.08158 10.6236 5.08322 10.374 5.15075 10.1384C5.21827 9.9029 5.3491 9.69037 5.52899 9.52398C7.05799 7.99998 9.91499 7.99998 12 7.99998C12.1768 7.99998 12.3463 8.07021 12.4713 8.1952C12.5963 8.32019 12.6665 8.48972 12.6665 8.66648C12.6665 8.84325 12.5963 9.01278 12.4713 9.13777C12.3463 9.26276 12.1768 9.33298 12 9.33298C10.148 9.33298 7.60999 9.33298 6.47099 10.471C6.45374 10.4866 6.43951 10.5052 6.42899 10.526C6.44399 10.626 6.80999 11.035 7.63399 11.318C8.16011 11.5408 8.73605 11.6195 9.30266 11.546C9.86926 11.4726 10.4061 11.2496 10.858 10.9C11.6798 10.1857 12.6823 9.71128 13.7557 9.52856C14.8291 9.34584 15.9321 9.46188 16.944 9.86398C17.4151 10.0012 17.8328 10.2795 18.1409 10.6614C18.449 11.0433 18.6326 11.5105 18.667 12C18.667 14.471 16.244 16 14 16C13.3546 16.0314 12.7118 15.8972 12.133 15.61ZM2.66699 11.334C2.66699 11.1572 2.73721 10.9877 2.86221 10.8627C2.9872 10.7377 3.15673 10.6675 3.33349 10.6675C3.51026 10.6675 3.67979 10.7377 3.80478 10.8627C3.92977 10.9877 3.99999 11.1572 3.99999 11.334C4.02399 11.776 5.13399 14.67 9.33299 14.67C9.50045 14.683 9.65685 14.7587 9.77093 14.882C9.88501 15.0052 9.94838 15.167 9.94838 15.335C9.94838 15.5029 9.88501 15.6647 9.77093 15.788C9.65685 15.9113 9.50045 15.987 9.33299 16C4.26699 16 2.66699 12.362 2.66699 11.334Z" fill="#FFD983"/>
<path id="Vector_6" d="M7.33398 4.66599C7.24646 4.66599 7.15979 4.64876 7.07893 4.61526C6.99806 4.58177 6.92459 4.53267 6.8627 4.47078C6.80081 4.40889 6.75171 4.33542 6.71822 4.25455C6.68472 4.17369 6.66748 4.08702 6.66748 3.99949C6.66748 3.91197 6.68472 3.8253 6.71822 3.74444C6.75171 3.66357 6.80081 3.5901 6.8627 3.52821C6.92459 3.46632 6.99806 3.41722 7.07893 3.38373C7.15979 3.35023 7.24646 3.33299 7.33398 3.33299H22.666C22.7536 3.33299 22.8403 3.35025 22.9212 3.38377C23.0022 3.41729 23.0757 3.46642 23.1376 3.52835C23.1996 3.59029 23.2487 3.66382 23.2822 3.74474C23.3157 3.82567 23.333 3.9124 23.333 3.99999C23.333 4.36799 23.033 5.33299 22.666 5.33299L7.33398 4.66599ZM6.66598 2.02099C6.65011 1.84554 6.70429 1.67093 6.81671 1.53528C6.92912 1.39964 7.09063 1.31397 7.26598 1.29699L22.55 0.0409945C22.7255 0.0248499 22.9003 0.0789352 23.036 0.1914C23.1717 0.303865 23.2573 0.465538 23.274 0.640995C23.306 1.00699 23.097 1.99599 22.729 2.02899L7.39198 2.62599H7.33198C7.16543 2.62669 7.00465 2.56496 6.88137 2.45297C6.75809 2.34098 6.68124 2.18685 6.66598 2.02099Z" fill="#AA695B"/>
<path id="Vector_7" d="M10.667 10.667V0.666988C10.667 0.579462 10.6842 0.492793 10.7177 0.41193C10.7512 0.331066 10.8003 0.257592 10.8622 0.195702C10.9241 0.133811 10.9976 0.0847173 11.0784 0.0512226C11.1593 0.0177278 11.246 0.000488281 11.3335 0.000488281C11.421 0.000488281 11.5077 0.0177278 11.5886 0.0512226C11.6694 0.0847173 11.7429 0.133811 11.8048 0.195702C11.8667 0.257592 11.9158 0.331066 11.9493 0.41193C11.9828 0.492793 12 0.579462 12 0.666988V10.667C12 10.7545 11.9828 10.8412 11.9493 10.922C11.9158 11.0029 11.8667 11.0764 11.8048 11.1383C11.7429 11.2002 11.6694 11.2493 11.5886 11.2828C11.5077 11.3162 11.421 11.3335 11.3335 11.3335C11.246 11.3335 11.1593 11.3162 11.0784 11.2828C10.9976 11.2493 10.9241 11.2002 10.8622 11.1383C10.8003 11.0764 10.7512 11.0029 10.7177 10.922C10.6842 10.8412 10.667 10.7545 10.667 10.667ZM8 9.33299V1.33299C8 1.15622 8.07022 0.986695 8.19521 0.861702C8.32021 0.736709 8.48973 0.666488 8.6665 0.666488C8.84327 0.666488 9.01279 0.736709 9.13779 0.861702C9.26278 0.986695 9.333 1.15622 9.333 1.33299V9.33299C9.333 9.50976 9.26278 9.67928 9.13779 9.80428C9.01279 9.92927 8.84327 9.99949 8.6665 9.99949C8.48973 9.99949 8.32021 9.92927 8.19521 9.80428C8.07022 9.67928 8 9.50976 8 9.33299V9.33299Z" fill="#FFD983"/>
</g>
</svg>
