<svg width="24" height="25" viewBox="0 0 24 25" fill="none" xmlns="http://www.w3.org/2000/svg">
<g id="Emoji">
<path id="Vector" d="M14 18.159C14 16.727 15.491 15.566 17.333 15.566C17.7867 15.5652 18.2374 15.6392 18.667 15.785V5.21301C18.6723 5.05739 18.7285 4.9078 18.8269 4.78715C18.9253 4.6665 19.0606 4.58144 19.212 4.54501L23.455 3.67701C23.5214 3.6602 23.5908 3.65919 23.6576 3.67406C23.7245 3.68893 23.7869 3.71927 23.8399 3.76264C23.8929 3.80601 23.935 3.8612 23.9628 3.92379C23.9906 3.98638 24.0033 4.05461 24 4.12301V6.64601C23.9945 6.80158 23.9383 6.95109 23.8399 7.07171C23.7415 7.19233 23.6063 7.27742 23.455 7.31401L20.667 7.88501V18.233H20.657C20.606 19.633 19.142 20.751 17.333 20.751C15.492 20.751 14 19.59 14 18.159ZM0 15.492C0 14.06 1.492 12.9 3.334 12.9C3.78731 12.8997 4.23761 12.9737 4.667 13.119V2.54601C4.67246 2.39043 4.72869 2.24092 4.8271 2.12031C4.92551 1.99969 5.06069 1.91459 5.212 1.87801L9.455 1.01101C9.52132 0.994003 9.59071 0.992819 9.65757 1.00755C9.72443 1.02228 9.78689 1.05252 9.83993 1.09582C9.89296 1.13912 9.93507 1.19428 9.96288 1.25684C9.99068 1.31941 10.0034 1.38763 10 1.45601V3.97901C9.9947 4.13463 9.93853 4.28422 9.8401 4.40487C9.74166 4.52552 9.60639 4.61058 9.455 4.64701L6.667 5.21801V15.567H6.657C6.606 16.967 5.142 18.085 3.334 18.085C1.492 18.085 0 16.923 0 15.492Z" fill="#5DADEC"/>
<path id="Vector_2" d="M11.213 8.54399C11.0614 8.58059 10.926 8.66579 10.8274 8.7866C10.7288 8.9074 10.6725 9.05716 10.667 9.21299V19.784C10.2373 19.6386 9.78662 19.5649 9.333 19.566C7.492 19.566 6 20.726 6 22.158C6 23.59 7.492 24.751 9.333 24.751C11.142 24.751 12.605 23.629 12.656 22.233H12.666V11.884L15.454 11.314C15.6055 11.2776 15.7409 11.1926 15.8395 11.0719C15.9381 10.9513 15.9945 10.8017 16 10.646V8.12199C16.0034 8.05361 15.9907 7.98539 15.9629 7.92283C15.9351 7.86026 15.893 7.80511 15.8399 7.7618C15.7869 7.7185 15.7244 7.68827 15.6576 7.67354C15.5907 7.6588 15.5213 7.65999 15.455 7.67699L11.213 8.54399Z" fill="#5DADEC"/>
</g>
</svg>
