<svg width="15" height="24" viewBox="0 0 15 24" fill="none" xmlns="http://www.w3.org/2000/svg">
<g id="Emoji">
<path id="Vector" d="M12.423 23.423L12.385 23.441V23.351C12.373 22.962 11.98 23.009 11.933 23.005C11.7994 23.0051 11.6659 22.9981 11.533 22.984C11.341 22.9655 11.1549 22.9069 10.987 22.812C10.794 22.696 10.532 22.499 10.307 22.368C10.082 22.237 9.79899 22.075 9.79899 22.075C9.72265 22.2078 9.61269 22.3182 9.48016 22.3951C9.34763 22.472 9.1972 22.5126 9.04399 22.513C8.78117 22.4693 8.52572 22.3891 8.28499 22.275C8.21099 22.251 8.17799 22.293 8.14799 22.35C8.06951 22.5666 8.02172 22.7931 8.00599 23.023C8.0042 23.1146 8.01428 23.206 8.03599 23.295L7.99899 23.283C7.99505 23.2819 7.9909 23.2817 7.98688 23.2825C7.98287 23.2833 7.9791 23.2851 7.97588 23.2876C7.97267 23.2901 7.97009 23.2934 7.96837 23.2971C7.96666 23.3008 7.96584 23.3049 7.96599 23.309V23.769C7.96781 23.7964 7.97858 23.8225 7.99663 23.8433C8.01469 23.8641 8.03905 23.8784 8.06599 23.884C8.47073 23.9339 8.87818 23.9586 9.28599 23.958C9.32799 23.921 9.37299 23.803 9.40899 23.786C9.60347 23.803 9.79616 23.8365 9.98499 23.886C10.2516 23.9554 10.5255 23.9927 10.801 23.997C11.1652 23.9793 11.5264 23.9216 11.878 23.825C12.0667 23.781 12.2499 23.716 12.424 23.631C12.474 23.6 12.46 23.586 12.456 23.563C12.456 23.543 12.423 23.423 12.423 23.423Z" fill="#292F33"/>
<path id="Vector_2" d="M8.85699 23.471C9.04973 23.2367 9.31041 23.068 9.60307 22.9881C9.89573 22.9083 10.206 22.9211 10.491 23.025C10.557 22.94 10.645 22.807 10.735 22.66L11.022 22.834C10.9187 23.0032 10.8066 23.1667 10.686 23.324L10.612 23.424L10.497 23.378C10.2702 23.2682 10.0134 23.2364 9.76664 23.2874C9.51985 23.3384 9.29677 23.4693 9.13199 23.66L8.85699 23.471Z" fill="#4B545D"/>
<path id="Vector_3" d="M4.457 23.423L4.419 23.441V23.351C4.407 22.962 4.014 23.009 3.967 23.005C3.83339 23.0051 3.69987 22.9981 3.567 22.984C3.37494 22.9656 3.1889 22.907 3.021 22.812C2.828 22.696 2.566 22.499 2.341 22.368C2.116 22.237 1.833 22.075 1.833 22.075C1.75666 22.2078 1.6467 22.3182 1.51417 22.3951C1.38164 22.472 1.23122 22.5126 1.078 22.513C0.815185 22.4693 0.559734 22.3891 0.319003 22.275C0.245003 22.251 0.212003 22.293 0.182003 22.35C0.103526 22.5666 0.0557296 22.7931 0.0400027 23.023C0.0382082 23.1146 0.0482923 23.206 0.0700027 23.295L0.0330027 23.283C0.0290598 23.2819 0.0249115 23.2817 0.0208959 23.2825C0.0168802 23.2833 0.0131106 23.2851 0.00989406 23.2876C0.00667756 23.2901 0.00410512 23.2934 0.00238624 23.2971C0.000667369 23.3008 -0.000149331 23.3049 2.65936e-06 23.309V23.769C0.00182556 23.7964 0.012588 23.8225 0.0306456 23.8433C0.0487032 23.8641 0.0730629 23.8784 0.100003 23.884C0.504746 23.9339 0.912196 23.9586 1.32 23.958C1.362 23.921 1.407 23.803 1.443 23.786C1.63748 23.803 1.83017 23.8365 2.019 23.886C2.28559 23.9554 2.55955 23.9927 2.835 23.997C3.19922 23.9793 3.56039 23.9216 3.912 23.825C4.10071 23.781 4.28387 23.716 4.458 23.631C4.507 23.6 4.494 23.586 4.49 23.563C4.49 23.543 4.457 23.423 4.457 23.423Z" fill="#292F33"/>
<path id="Vector_4" d="M0.891006 23.471C1.08329 23.2361 1.34395 23.067 1.63678 22.9871C1.92961 22.9071 2.24006 22.9204 2.52501 23.025C2.59101 22.94 2.67901 22.807 2.76901 22.66L3.05601 22.834C2.95273 23.0032 2.84057 23.1667 2.72001 23.324L2.64601 23.424L2.53101 23.378C2.3043 23.2668 2.04704 23.2341 1.79974 23.2852C1.55244 23.3363 1.32914 23.4681 1.16501 23.66L0.891006 23.471Z" fill="#4B545D"/>
<path id="Vector_5" d="M13.949 1.22398L13.696 1.76798C13.696 1.75898 13.64 1.71998 13.644 1.71298L14.019 0.91298C14.0355 0.879165 14.0378 0.840203 14.0255 0.804665C14.0132 0.769127 13.9873 0.739924 13.9535 0.72348C13.9197 0.707037 13.8807 0.7047 13.8452 0.716984C13.8097 0.729267 13.7805 0.755165 13.764 0.78898L13.728 0.86598L13.412 1.54498L13.35 1.51298L13.771 0.61298C13.7786 0.596205 13.7828 0.57808 13.7832 0.559674C13.7837 0.541267 13.7805 0.522951 13.7738 0.505804C13.7671 0.488658 13.757 0.473027 13.7442 0.459833C13.7313 0.446639 13.716 0.436149 13.699 0.42898C13.6823 0.420791 13.6642 0.416055 13.6456 0.415056C13.6271 0.414056 13.6085 0.416814 13.591 0.423164C13.5736 0.429515 13.5576 0.439326 13.544 0.45201C13.5304 0.464694 13.5195 0.47999 13.512 0.49698L13.095 1.39698C13.095 1.39698 13.03 1.36598 13.029 1.36798L13.371 0.62698C13.3793 0.610423 13.3841 0.592375 13.3852 0.573911C13.3864 0.555446 13.3838 0.536941 13.3776 0.519496C13.3715 0.502051 13.3619 0.486022 13.3494 0.472362C13.3369 0.458702 13.3218 0.44769 13.305 0.43998C13.288 0.431936 13.2696 0.427447 13.2508 0.426788C13.232 0.42613 13.2133 0.429316 13.1958 0.436152C13.1783 0.442987 13.1623 0.453328 13.149 0.466539C13.1356 0.47975 13.1251 0.495554 13.118 0.51298L12.648 1.52298C12.6445 1.53496 12.6384 1.54603 12.6302 1.55539C12.6219 1.56475 12.6117 1.57218 12.6002 1.57714C12.5888 1.58211 12.5764 1.58449 12.5639 1.58411C12.5514 1.58374 12.5392 1.58062 12.528 1.57498C12.457 1.52198 12.494 1.39598 12.471 1.28698C12.445 1.11898 12.344 1.01298 12.237 1.00598C12.13 0.99898 12.099 1.09898 12.109 1.13198C12.128 1.19598 12.158 1.30198 12.193 1.47098C12.2078 1.54308 12.204 1.61775 12.182 1.68798C12.1446 1.8179 12.1361 1.95442 12.157 2.08798C12.1774 2.2124 12.2241 2.33104 12.294 2.43598L12.071 2.91998L13.081 3.36198L13.326 2.72098C13.511 2.64322 13.6616 2.50113 13.75 2.32098L13.779 2.25698L14.203 1.34398C14.2117 1.3273 14.2169 1.309 14.2182 1.29023C14.2195 1.27147 14.2169 1.25263 14.2106 1.2349C14.2044 1.21717 14.1945 1.20092 14.1816 1.18717C14.1688 1.17342 14.1533 1.16246 14.136 1.15498C14.1193 1.14682 14.1011 1.14214 14.0825 1.14121C14.0639 1.14027 14.0453 1.14312 14.0278 1.14957C14.0103 1.15601 13.9943 1.16593 13.9808 1.17872C13.9673 1.19151 13.9564 1.2069 13.949 1.22398Z" fill="#FFCD4C"/>
<path id="Vector_6" d="M12.641 1.53699C12.7866 1.61965 12.9014 1.74741 12.968 1.90099C13.0026 1.98667 13.0188 2.07867 13.0155 2.17101C13.0122 2.26335 12.9896 2.35397 12.949 2.43699C12.905 2.52799 12.834 2.54799 12.883 2.40399C12.9375 2.25526 12.9366 2.09191 12.8806 1.94376C12.8246 1.7956 12.7172 1.67252 12.578 1.59699L12.541 1.57699C12.5568 1.58069 12.5732 1.58069 12.589 1.57699C12.6108 1.57076 12.6294 1.55646 12.641 1.53699V1.53699Z" fill="#EF9645"/>
<path id="Vector_7" d="M2.31101 13.354C2.25877 13.3021 2.22058 13.2377 2.20001 13.167C2.16002 13.0367 2.09172 12.9168 2.00001 12.816C1.91367 12.7227 1.80782 12.6497 1.69001 12.602L1.61301 12.08L0.527008 12.27L0.677008 12.94C0.566104 13.1087 0.520262 13.312 0.548008 13.512L0.559008 13.582L0.709008 14.572C0.711434 14.5904 0.717547 14.6081 0.726982 14.6241C0.736416 14.6401 0.748978 14.654 0.763915 14.665C0.778853 14.676 0.795859 14.6839 0.813916 14.6882C0.831974 14.6925 0.850711 14.6931 0.869008 14.69C0.887468 14.6877 0.905268 14.6817 0.921323 14.6723C0.937378 14.6629 0.951352 14.6503 0.962392 14.6353C0.973433 14.6204 0.98131 14.6033 0.985542 14.5852C0.989774 14.5671 0.990273 14.5483 0.987008 14.53L0.897008 13.936C0.897008 13.946 0.969008 13.945 0.971008 13.953L1.10401 14.831C1.10542 14.8504 1.11082 14.8693 1.11987 14.8865C1.12892 14.9037 1.14143 14.9188 1.15662 14.9309C1.1718 14.9431 1.18933 14.9519 1.2081 14.957C1.22687 14.962 1.24648 14.9631 1.2657 14.9602C1.28492 14.9573 1.30333 14.9504 1.31977 14.9401C1.33622 14.9297 1.35035 14.9161 1.36127 14.9C1.37219 14.8839 1.37967 14.8658 1.38324 14.8467C1.38681 14.8276 1.38639 14.8079 1.38201 14.789L1.36801 14.705L1.25601 13.965L1.32701 13.958L1.47501 14.934C1.47642 14.9534 1.48182 14.9723 1.49087 14.9895C1.49992 15.0067 1.51243 15.0218 1.52762 15.0339C1.5428 15.0461 1.56033 15.0549 1.5791 15.06C1.59787 15.065 1.61748 15.0661 1.6367 15.0632C1.65592 15.0603 1.67433 15.0534 1.69077 15.0431C1.70722 15.0327 1.72135 15.0191 1.73227 15.003C1.74319 14.9869 1.75067 14.9688 1.75424 14.9497C1.75781 14.9306 1.75739 14.9109 1.75301 14.892L1.60601 13.916C1.60601 13.916 1.67501 13.902 1.67401 13.9L1.79601 14.708C1.79742 14.7274 1.80282 14.7463 1.81187 14.7635C1.82092 14.7807 1.83343 14.7958 1.84862 14.8079C1.8638 14.8201 1.88133 14.8289 1.9001 14.834C1.91887 14.839 1.93848 14.8401 1.9577 14.8372C1.97692 14.8343 1.99533 14.8274 2.01177 14.8171C2.02822 14.8067 2.04235 14.7931 2.05327 14.777C2.06419 14.7609 2.07167 14.7428 2.07524 14.7237C2.07881 14.7046 2.07839 14.6849 2.07401 14.666L1.90701 13.566C1.89601 13.491 1.94501 13.455 1.97801 13.456C2.06401 13.456 2.10201 13.583 2.17801 13.663C2.21749 13.7164 2.27356 13.7551 2.33744 13.7732C2.40132 13.7913 2.4694 13.7877 2.53101 13.763C2.54709 13.7562 2.5613 13.7456 2.57245 13.7322C2.5836 13.7188 2.59136 13.7029 2.59509 13.6858C2.59881 13.6688 2.59839 13.6511 2.59385 13.6342C2.58931 13.6174 2.58079 13.6019 2.56901 13.589C2.51901 13.547 2.43401 13.48 2.31101 13.354Z" fill="#FFCD4C"/>
<path id="Vector_8" d="M10.688 5.42598C10.541 5.50998 9.536 5.39798 8.209 5.66298C6.882 5.92798 6.37 5.56298 5.009 5.61298C4.27566 5.6852 3.55139 5.83059 2.847 6.04698C2.023 6.24798 0.656997 8.21698 0.272997 8.90198C0.0294404 9.39383 -0.0474307 9.95158 0.0539974 10.491C0.109205 11.2778 0.294731 12.05 0.602997 12.776L1.755 12.588C1.66142 11.6544 1.65205 10.7143 1.727 9.77898C1.795 9.66598 2.614 8.35898 3.27 8.12198L8.757 7.86398C9.75065 7.74357 10.7217 7.48018 11.64 7.08198C12.117 6.73698 13.317 2.89298 13.317 2.89298L12.231 2.43698C12.231 2.43698 10.851 5.33698 10.688 5.42598Z" fill="#292F33"/>
<path id="Vector_9" d="M5.80001 3.649C5.89768 3.63891 5.99638 3.6482 6.09045 3.67633C6.18452 3.70447 6.27212 3.75089 6.34821 3.81296C6.42429 3.87502 6.48738 3.95149 6.53385 4.03798C6.58033 4.12448 6.60926 4.2193 6.61901 4.317L6.83301 6.43C6.8529 6.62719 6.79365 6.8242 6.66828 6.9777C6.54291 7.1312 6.3617 7.22861 6.16451 7.2485C5.96732 7.26839 5.77031 7.20914 5.61681 7.08377C5.46331 6.9584 5.3659 6.77719 5.34601 6.58L5.12701 4.471C5.11632 4.35943 5.13081 4.24688 5.1694 4.14165C5.208 4.03643 5.26972 3.9412 5.35001 3.863C5.47071 3.74172 5.62976 3.66609 5.80001 3.649Z" fill="#FFCD4C"/>
<path id="Vector_10" d="M5.86601 5.06001C5.30917 5.02047 4.7905 4.7626 4.42286 4.34253C4.05522 3.92245 3.86838 3.37416 3.90301 2.81701C3.86838 2.25985 4.05522 1.71156 4.42286 1.29148C4.7905 0.871406 5.30917 0.613539 5.86601 0.574005C6.42258 0.613786 6.94091 0.871797 7.30818 1.29188C7.67544 1.71196 7.86192 2.26011 7.82701 2.81701C7.86192 3.3739 7.67544 3.92205 7.30818 4.34213C6.94091 4.76221 6.42258 5.02022 5.86601 5.06001Z" fill="#FFCD4C"/>
<path id="Vector_11" d="M5.34501 2.13199C5.10303 2.51177 4.92878 2.93064 4.83001 3.36999C4.83001 3.36999 4.53001 2.64599 4.28701 2.76999C4.15706 2.87128 4.07173 3.01924 4.04914 3.18244C4.02654 3.34563 4.06847 3.51121 4.16601 3.64399C4.37701 3.94399 4.63801 4.46599 4.40901 4.31599C4.12602 4.1469 3.89948 3.89774 3.75801 3.59999C3.54497 3.14561 3.43795 2.64878 3.44501 2.14699C3.43036 1.75141 3.53072 1.36006 3.73394 1.02036C3.93716 0.680647 4.23452 0.407151 4.59001 0.232991C5.04851 0.0490288 5.54371 -0.0250792 6.03598 0.0165948C6.52826 0.0582689 7.00395 0.214568 7.42501 0.472991C7.72165 0.71298 7.92432 1.04976 7.99746 1.42425C8.0706 1.79874 8.00955 2.18702 7.82501 2.52099C7.77856 2.24387 7.66643 1.9819 7.49801 1.75699C7.32396 1.58069 7.13076 1.42439 6.92201 1.29099C6.47669 1.70126 5.93381 1.99077 5.34501 2.13199Z" fill="#6D22E4"/>
<path id="Vector_12" d="M3.24701 12.487L7.99301 12.471C7.99301 12.471 8.41201 10.66 8.68601 9.423C8.76247 8.17634 8.51331 6.93123 7.96301 5.81L7.23801 5.737L7.09601 5.06L6.38801 5.328L6.28801 6.501L5.98201 5.385L4.94701 5.295L4.82101 6.01L3.24701 6.287V12.487Z" fill="#DD2E44"/>
<path id="Vector_13" d="M0.0429993 22.572C0.974519 21.1142 1.82449 19.6059 2.589 18.054C2.84 17.175 3.247 12.488 3.247 12.488L7.994 12.472C7.97352 12.6988 8.00018 12.9273 8.07228 13.1433C8.14439 13.3593 8.26039 13.558 8.413 13.727C9.12622 14.6016 9.75912 15.5387 10.304 16.527C10.4007 16.8099 10.4563 17.1053 10.469 17.404C10.4646 19.1303 10.3188 20.8534 10.033 22.556C9.3889 22.6588 8.73187 22.6493 8.091 22.528C8.091 22.528 8.518 18.883 8.031 17.541C7.43616 16.6999 6.79483 15.8926 6.11 15.123C6.11 15.123 5.043 18.462 4.881 18.823C4.10235 20.1681 3.20761 21.4427 2.207 22.632C1.92088 22.6862 1.6302 22.7126 1.339 22.711C0.903243 22.7117 0.4687 22.6651 0.0429993 22.572H0.0429993ZM2.828 6.36698L4.843 5.85198C5.14936 6.70981 5.39693 7.58751 5.584 8.47898C5.73898 9.27671 5.7924 10.0908 5.743 10.902C4.8903 11.209 3.99313 11.3746 3.087 11.392C3.25233 9.71345 3.16503 8.01962 2.828 6.36698ZM7.36 10.837C7.36 10.837 7.424 10.337 7.517 9.03198C7.52481 7.85753 7.41662 6.68517 7.194 5.53198L8.207 5.58098C8.5836 6.22257 8.8128 6.93989 8.878 7.68098C8.90867 8.85608 8.75136 10.0285 8.412 11.154H8.367C8.18661 11.1701 8.00482 11.1505 7.83202 11.0963C7.65923 11.0421 7.49882 10.9543 7.36 10.838V10.837Z" fill="#292F33"/>
</g>
</svg>
